<svg xmlns="http://www.w3.org/2000/svg" role="img" aria-labelledby="title desc" viewBox="0 0 1200 320">
  <title id="title">HeartBioPortal DataHub overview</title>
  <desc id="desc">An abstract professional data integration hero with source tables, canonical records, and published artifacts.</desc>
  <defs>
    <linearGradient id="surface" x1="0" y1="0" x2="1" y2="1">
      <stop offset="0" stop-color="#f8fbfc"/>
      <stop offset="0.55" stop-color="#eef5f4"/>
      <stop offset="1" stop-color="#e5eef0"/>
    </linearGradient>
    <linearGradient id="flow" x1="0" y1="0" x2="1" y2="0">
      <stop offset="0" stop-color="#2f7d6d"/>
      <stop offset="0.52" stop-color="#a3334b"/>
      <stop offset="1" stop-color="#d8a441"/>
    </linearGradient>
    <filter id="soft-shadow" x="-20%" y="-20%" width="140%" height="140%">
      <feDropShadow dx="0" dy="12" stdDeviation="14" flood-color="#1d2a33" flood-opacity="0.14"/>
    </filter>
    <pattern id="paper-grid" width="36" height="36" patternUnits="userSpaceOnUse">
      <path d="M36 0H0V36" fill="none" stroke="#d7e3e6" stroke-width="1"/>
    </pattern>
  </defs>
  <rect width="1200" height="320" rx="28" fill="url(#surface)"/>
  <rect x="1" y="1" width="1198" height="318" rx="27" fill="none" stroke="#d5e1e4" stroke-width="2"/>
  <rect x="34" y="28" width="1132" height="264" rx="22" fill="#ffffff" opacity="0.62"/>
  <rect x="54" y="48" width="1092" height="224" rx="16" fill="url(#paper-grid)" opacity="0.55"/>

  <g filter="url(#soft-shadow)">
    <rect x="80" y="74" width="250" height="170" rx="12" fill="#ffffff"/>
    <rect x="80" y="74" width="250" height="38" rx="12" fill="#243240"/>
    <path d="M80 100H330" stroke="#243240" stroke-width="24"/>
    <text x="104" y="99" fill="#ffffff" font-family="Inter, ui-sans-serif, system-ui, -apple-system, BlinkMacSystemFont, Segoe UI, sans-serif" font-size="13" font-weight="800">SOURCE CATALOG</text>
    <g stroke="#d8e4e7" stroke-width="2">
      <path d="M104 136H302"/>
      <path d="M104 164H302"/>
      <path d="M104 192H302"/>
      <path d="M104 220H302"/>
    </g>
    <g fill="#2f7d6d">
      <circle cx="116" cy="136" r="5"/>
      <circle cx="116" cy="164" r="5"/>
      <circle cx="116" cy="192" r="5"/>
      <circle cx="116" cy="220" r="5"/>
    </g>
    <g fill="#718591">
      <rect x="132" y="131" width="104" height="9" rx="4"/>
      <rect x="132" y="159" width="142" height="9" rx="4"/>
      <rect x="132" y="187" width="124" height="9" rx="4"/>
      <rect x="132" y="215" width="158" height="9" rx="4"/>
    </g>
  </g>

  <g filter="url(#soft-shadow)">
    <rect x="442" y="56" width="316" height="208" rx="18" fill="#fbfdfd"/>
    <rect x="468" y="82" width="264" height="36" rx="8" fill="#eef5f4"/>
    <rect x="488" y="91" width="96" height="8" rx="4" fill="#2f7d6d"/>
    <rect x="604" y="91" width="82" height="8" rx="4" fill="#a3334b" opacity="0.8"/>
    <rect x="488" y="102" width="144" height="7" rx="3.5" fill="#7b8f99" opacity="0.55"/>
    <g fill="none" stroke-linecap="round" stroke-linejoin="round">
      <path d="M504 188 C540 126 586 132 600 178 C622 108 696 122 698 186 C699 225 660 238 600 222 C540 238 500 224 504 188Z" stroke="#a3334b" stroke-width="5" opacity="0.74"/>
      <path d="M503 188 C538 157 567 158 600 178 C637 157 671 158 699 186" stroke="#2f7d6d" stroke-width="4" opacity="0.82"/>
      <path d="M518 204 C555 188 581 188 600 199 C623 187 661 189 688 207" stroke="#d8a441" stroke-width="3" opacity="0.85"/>
    </g>
    <g fill="#243240">
      <circle cx="600" cy="178" r="5"/>
      <circle cx="541" cy="158" r="4"/>
      <circle cx="661" cy="159" r="4"/>
      <circle cx="555" cy="218" r="4"/>
      <circle cx="650" cy="218" r="4"/>
    </g>
  </g>

  <g filter="url(#soft-shadow)">
    <rect x="870" y="74" width="250" height="170" rx="12" fill="#ffffff"/>
    <rect x="894" y="102" width="84" height="16" rx="8" fill="#243240"/>
    <rect x="894" y="132" width="174" height="10" rx="5" fill="#d9e5e8"/>
    <rect x="894" y="154" width="136" height="10" rx="5" fill="#d9e5e8"/>
    <rect x="894" y="176" width="182" height="10" rx="5" fill="#d9e5e8"/>
    <path d="M894 222 L930 198 L964 210 L1002 178 L1040 190 L1084 146" fill="none" stroke="#2f7d6d" stroke-width="5" stroke-linecap="round" stroke-linejoin="round"/>
    <g fill="#a3334b">
      <circle cx="930" cy="198" r="5"/>
      <circle cx="1002" cy="178" r="5"/>
      <circle cx="1084" cy="146" r="5"/>
    </g>
  </g>

  <g fill="none" stroke="url(#flow)" stroke-width="4" stroke-linecap="round" stroke-linejoin="round" opacity="0.85">
    <path d="M332 146 C382 126 408 108 442 110"/>
    <path d="M332 190 C386 205 408 222 442 216"/>
    <path d="M758 126 C808 116 828 106 870 110"/>
    <path d="M758 208 C808 216 828 226 870 224"/>
  </g>
  <g fill="#ffffff" stroke="#243240" stroke-width="3">
    <circle cx="382" cy="128" r="8"/>
    <circle cx="390" cy="204" r="8"/>
    <circle cx="812" cy="116" r="8"/>
    <circle cx="818" cy="218" r="8"/>
  </g>

  <g font-family="Inter, ui-sans-serif, system-ui, -apple-system, BlinkMacSystemFont, Segoe UI, sans-serif">
    <text x="80" y="286" fill="#536a79" font-size="14" font-weight="700">raw sources</text>
    <text x="442" y="286" fill="#536a79" font-size="14" font-weight="700">canonical records</text>
    <text x="870" y="286" fill="#536a79" font-size="14" font-weight="700">published artifacts</text>
  </g>
</svg>
