<svg xmlns="http://www.w3.org/2000/svg" width="1600" height="1120" viewBox="0 0 1600 1120" role="img" aria-labelledby="title desc">
  <title id="title">HeartBioPortal association serving DuckDB schema</title>
  <desc id="desc">Schema diagram showing association, overall, expression, SGA, gene catalog, and metadata tables in the compact HeartBioPortal serving DuckDB.</desc>
  <defs>
    <marker id="arrow" markerWidth="9" markerHeight="9" refX="8" refY="4.5" orient="auto" markerUnits="strokeWidth">
      <path d="M1,1 L8,4.5 L1,8 Z" fill="#be123c"/>
    </marker>
    <marker id="arrowMuted" markerWidth="9" markerHeight="9" refX="8" refY="4.5" orient="auto" markerUnits="strokeWidth">
      <path d="M1,1 L8,4.5 L1,8 Z" fill="#fb7185"/>
    </marker>
    <filter id="cardShadow" x="-20%" y="-20%" width="140%" height="140%">
      <feDropShadow dx="0" dy="10" stdDeviation="9" flood-color="#0f172a" flood-opacity="0.12"/>
    </filter>
    <linearGradient id="headerRose" x1="0" y1="0" x2="1" y2="0">
      <stop offset="0" stop-color="#be123c"/>
      <stop offset="1" stop-color="#e11d48"/>
    </linearGradient>
    <style>
      .page { fill: #fff7f8; }
      .title { font-family: Georgia, 'Times New Roman', serif; font-size: 38px; font-weight: 700; fill: #111827; }
      .subtitle { font-family: Helvetica, Arial, sans-serif; font-size: 18px; fill: #475569; }
      .section-label { font-family: Helvetica, Arial, sans-serif; font-size: 15px; font-weight: 700; letter-spacing: 0.08em; text-transform: uppercase; fill: #be123c; }
      .table { fill: #ffffff; stroke: #fecdd3; stroke-width: 2; filter: url(#cardShadow); }
      .header { fill: url(#headerRose); }
      .headerText { font-family: Helvetica, Arial, sans-serif; font-size: 18px; font-weight: 700; fill: #ffffff; }
      .column { font-family: ui-monospace, SFMono-Regular, Menlo, Monaco, Consolas, 'Liberation Mono', monospace; font-size: 15px; fill: #1f2937; }
      .columnMuted { font-family: ui-monospace, SFMono-Regular, Menlo, Monaco, Consolas, 'Liberation Mono', monospace; font-size: 14px; fill: #64748b; }
      .columnSmall { font-family: ui-monospace, SFMono-Regular, Menlo, Monaco, Consolas, 'Liberation Mono', monospace; font-size: 13px; fill: #1f2937; }
      .columnMutedSmall { font-family: ui-monospace, SFMono-Regular, Menlo, Monaco, Consolas, 'Liberation Mono', monospace; font-size: 12.5px; fill: #64748b; }
      .note { font-family: Helvetica, Arial, sans-serif; font-size: 14px; fill: #475569; }
      .flow { fill: none; stroke: #be123c; stroke-width: 3; stroke-linecap: round; stroke-linejoin: round; marker-end: url(#arrow); }
      .flowMuted { fill: none; stroke: #fb7185; stroke-width: 2.25; stroke-dasharray: 7 7; stroke-linecap: round; stroke-linejoin: round; marker-end: url(#arrowMuted); }
      .sourceBox { fill: #fff1f2; stroke: #fb7185; stroke-width: 2; }
      .sourceText { font-family: Helvetica, Arial, sans-serif; font-size: 16px; font-weight: 700; fill: #881337; }
      .badge { fill: #ffe4e6; stroke: #fb7185; stroke-width: 1.5; }
      .badgeText { font-family: Helvetica, Arial, sans-serif; font-size: 13px; font-weight: 700; fill: #9f1239; }
    </style>
  </defs>

  <rect class="page" x="0" y="0" width="1600" height="1120"/>

  <text class="title" x="70" y="76">Association Serving DuckDB Schema</text>
  <text class="subtitle" x="70" y="112">Compact runtime artifact used by the backend provider. Primary association tables are built once; secondary analyses can be attached later in place.</text>

  <rect class="sourceBox" x="70" y="150" width="320" height="70" rx="18"/>
  <text class="sourceText" x="96" y="181">Published association outputs</text>
  <text class="note" x="96" y="204">association/final JSON or JSON.GZ</text>

  <rect class="sourceBox" x="1210" y="150" width="320" height="70" rx="18"/>
  <text class="sourceText" x="1238" y="181">Secondary artifacts</text>
  <text class="note" x="1238" y="204">expression + SGA per-gene JSON.GZ</text>

  <rect class="badge" x="70" y="250" width="420" height="36" rx="18"/>
  <text class="badgeText" x="94" y="273">base build: build_association_serving_duckdb.py</text>

  <rect class="badge" x="1110" y="250" width="420" height="36" rx="18"/>
  <text class="badgeText" x="1134" y="273">incremental update: run_secondary_analyses.py apply</text>

  <text class="section-label" x="70" y="326">Primary Serving Tables</text>
  <text class="section-label" x="1220" y="326">Secondary Serving Tables</text>
  <text class="section-label" x="625" y="326">Catalog / Availability Index</text>

  <g id="association-table">
    <rect class="table" x="70" y="350" width="430" height="270" rx="18"/>
    <rect class="header" x="70" y="350" width="430" height="52" rx="18"/>
    <path d="M70 384 H500 V402 H70 Z" fill="url(#headerRose)"/>
    <text class="headerText" x="94" y="383">association_gene_payloads</text>
    <text class="column" x="96" y="435">dataset_type VARCHAR</text>
    <text class="column" x="96" y="462">gene_id VARCHAR</text>
    <text class="column" x="96" y="489">gene_id_normalized VARCHAR</text>
    <text class="column" x="96" y="516">payload_json VARCHAR</text>
    <text class="column" x="96" y="543">source_path VARCHAR</text>
    <text class="columnMuted" x="96" y="583">index: dataset_type, gene_id_normalized</text>
  </g>

  <g id="overall-table">
    <rect class="table" x="70" y="670" width="430" height="270" rx="18"/>
    <rect class="header" x="70" y="670" width="430" height="52" rx="18"/>
    <path d="M70 704 H500 V722 H70 Z" fill="url(#headerRose)"/>
    <text class="headerText" x="94" y="703">overall_gene_payloads</text>
    <text class="column" x="96" y="755">dataset_type VARCHAR</text>
    <text class="column" x="96" y="782">gene_id VARCHAR</text>
    <text class="column" x="96" y="809">gene_id_normalized VARCHAR</text>
    <text class="column" x="96" y="836">payload_json VARCHAR</text>
    <text class="column" x="96" y="863">source_path VARCHAR</text>
    <text class="columnMuted" x="96" y="903">index: dataset_type, gene_id_normalized</text>
  </g>

  <g id="catalog-table">
    <rect class="table" x="585" y="382" width="470" height="500" rx="18"/>
    <rect class="header" x="585" y="382" width="470" height="52" rx="18"/>
    <path d="M585 416 H1055 V434 H585 Z" fill="url(#headerRose)"/>
    <text class="headerText" x="612" y="415">gene_catalog</text>
    <text class="column" x="616" y="467">gene_id VARCHAR</text>
    <text class="column" x="616" y="494">gene_id_normalized VARCHAR</text>
    <text class="column" x="616" y="521">has_cvd BOOLEAN</text>
    <text class="column" x="616" y="548">has_trait BOOLEAN</text>
    <text class="column" x="616" y="575">has_cvd_association BOOLEAN</text>
    <text class="column" x="616" y="602">has_trait_association BOOLEAN</text>
    <text class="column" x="616" y="629">has_cvd_overall BOOLEAN</text>
    <text class="column" x="616" y="656">has_trait_overall BOOLEAN</text>
    <text class="column" x="616" y="683">has_expression BOOLEAN</text>
    <text class="column" x="616" y="710">has_sga BOOLEAN</text>
    <text class="columnMuted" x="616" y="760">derived from primary + secondary tables</text>
    <text class="columnMuted" x="616" y="787">index: gene_id_normalized</text>
    <rect class="badge" x="616" y="816" width="210" height="34" rx="17"/>
    <text class="badgeText" x="638" y="838">backend gene lookup index</text>
  </g>

  <g id="expression-table">
    <rect class="table" x="1130" y="350" width="400" height="250" rx="18"/>
    <rect class="header" x="1130" y="350" width="400" height="52" rx="18"/>
    <path d="M1130 384 H1530 V402 H1130 Z" fill="url(#headerRose)"/>
    <text class="headerText" x="1156" y="383">expression_gene_payloads</text>
    <text class="column" x="1158" y="435">gene_id VARCHAR</text>
    <text class="column" x="1158" y="462">gene_id_normalized VARCHAR</text>
    <text class="column" x="1158" y="489">payload_json VARCHAR</text>
    <text class="column" x="1158" y="516">source_path VARCHAR</text>
    <text class="columnMuted" x="1158" y="556">index: gene_id_normalized</text>
  </g>

  <g id="sga-table">
    <rect class="table" x="1130" y="670" width="400" height="250" rx="18"/>
    <rect class="header" x="1130" y="670" width="400" height="52" rx="18"/>
    <path d="M1130 704 H1530 V722 H1130 Z" fill="url(#headerRose)"/>
    <text class="headerText" x="1156" y="703">sga_gene_payloads</text>
    <text class="column" x="1158" y="755">gene_id VARCHAR</text>
    <text class="column" x="1158" y="782">gene_id_normalized VARCHAR</text>
    <text class="column" x="1158" y="809">payload_json VARCHAR</text>
    <text class="column" x="1158" y="836">source_path VARCHAR</text>
    <text class="columnMuted" x="1158" y="876">index: gene_id_normalized</text>
  </g>

  <path class="flow" d="M230 220 V306 H285 V350"/>
  <path class="flow" d="M230 220 V306 H42 V805 H70"/>
  <path class="flow" d="M500 485 H545 V520 H585"/>
  <path class="flow" d="M500 805 H545 V675 H585"/>

  <path class="flowMuted" d="M1370 220 V306 H1330 V350"/>
  <path class="flowMuted" d="M1370 220 V306 H1560 V795 H1530"/>
  <path class="flow" d="M1130 475 H1095 V575 H1055"/>
  <path class="flow" d="M1130 795 H1095 V675 H1055"/>

  <text class="note" x="70" y="958">Primary tables are generated from published association artifacts. Secondary tables can be replaced later without rebuilding association payloads.</text>
  <text class="note" x="70" y="978">Payload columns store compact JSON strings; backend provider deserializes them per requested gene.</text>

  <g id="build-metadata">
    <rect class="table" x="70" y="1000" width="690" height="94" rx="18"/>
    <rect class="header" x="70" y="1000" width="245" height="94" rx="18"/>
    <text class="headerText" x="96" y="1053">build_metadata</text>
    <text class="columnSmall" x="340" y="1027">built_at, source_root</text>
    <text class="columnSmall" x="340" y="1050">export_manifest_id, export_manifest_version</text>
    <text class="columnSmall" x="340" y="1073">association_row_count, overall_row_count</text>
    <text class="columnMutedSmall" x="340" y="1089">records base serving artifact construction</text>
  </g>

  <g id="secondary-metadata">
    <rect class="table" x="840" y="1000" width="690" height="94" rx="18"/>
    <rect class="header" x="840" y="1000" width="310" height="94" rx="18"/>
    <text class="headerText" x="866" y="1053">secondary_analysis_metadata</text>
    <text class="columnSmall" x="1174" y="1027">analysis_id, version, mode</text>
    <text class="columnSmall" x="1174" y="1050">artifact_root, row_count</text>
    <text class="columnSmall" x="1174" y="1073">metadata_json</text>
    <text class="columnMutedSmall" x="1174" y="1089">records expression/SGA updates</text>
  </g>
</svg>
